<svg preserveAspectRatio="none" width="100%" height="100%" overflow="visible" style="display: block;" viewBox="0 0 60 60" fill="none" xmlns="http://www.w3.org/2000/svg">
<g id="icons8-money (5) 1">
<path id="Vector" d="M10.1568 15.2304C10.272 13.9548 10.5576 12.276 11.3196 11.208C11.352 11.1624 11.5428 10.9956 11.5428 10.9596C11.6652 10.8804 11.5848 10.8384 11.2992 10.8348C11.0496 10.6656 10.9632 10.6716 11.04 10.8528C10.9788 11.064 11.2032 11.5848 11.2656 11.7936C11.4792 12.4992 11.7972 13.1724 12.1932 13.794C12.8136 14.7672 14.4492 14.4204 14.4288 13.188C14.4192 12.5976 14.508 12.0384 14.7588 11.4972C14.8812 11.2344 15.0396 10.9764 15.2208 10.7508C15.3264 10.6188 15.7392 10.3476 15.7824 10.212C15.936 10.1376 15.8508 10.1112 15.528 10.1328C15.3732 9.9528 15.3552 9.9504 15.474 10.1268C15.5112 10.278 15.6084 10.4592 15.6648 10.6044C15.8664 11.1288 16.0788 11.5716 16.4544 11.9952C17.0796 12.702 18.204 12.2772 18.4596 11.466C18.7776 10.458 19.4772 8.988 20.5128 8.5452C20.3112 8.6004 20.1096 8.6544 19.9068 8.7096C19.9764 8.7132 20.0472 8.7168 20.1168 8.7216C19.9152 8.6664 19.7136 8.6124 19.5108 8.5572C19.2336 8.376 19.6416 8.988 19.698 9.1008C19.8384 9.384 19.98 9.6684 20.1204 9.9516C20.5572 10.8312 21.708 10.6212 22.1928 9.9516C22.6596 9.3048 23.1204 8.6532 23.5956 8.0124C23.7252 7.8372 24.0144 7.6092 24.0912 7.4208C24.1164 7.392 24.1452 7.368 24.1788 7.3488C24.2556 7.314 24.2352 7.2936 24.1176 7.29C24.0528 7.2972 24.0096 7.2744 23.9892 7.2228C23.8884 7.08 23.8752 6.9108 23.9484 6.714C24.6396 7.1172 25.3296 7.5216 26.0208 7.9248C26.526 7.0476 27.1716 6.2592 27.984 5.646C28.5 5.256 28.7688 4.6104 28.4148 4.0044C28.1172 3.4956 27.2928 3.1812 26.7732 3.5736C25.6236 4.4412 24.6696 5.4612 23.9484 6.714C23.1684 8.0676 25.1592 9.1896 26.0208 7.9248C27.0516 6.4116 25.2948 4.5684 23.6904 4.9812C22.8864 5.1876 22.3188 5.748 21.8304 6.3876C21.2436 7.1568 20.6904 7.9536 20.1228 8.7384C20.814 8.7384 21.504 8.7384 22.1952 8.7384C21.8556 8.0544 21.576 7.1676 20.9808 6.6636C20.25 6.0456 19.3344 6.3312 18.672 6.882C17.4564 7.8936 16.6188 9.3324 16.1472 10.8252C16.8156 10.6488 17.484 10.4724 18.1524 10.296C17.7696 9.864 17.7252 9.15 17.3832 8.6688C16.7676 7.8036 15.6732 7.5732 14.7312 8.0556C12.9348 8.9772 12 11.2596 12.0312 13.1856C12.7764 12.984 13.5216 12.7824 14.2668 12.5796C13.9536 12.0876 13.7016 11.5956 13.5432 11.0316C13.41 10.5552 13.3632 10.0548 13.1328 9.6084C12.5748 8.5284 11.2824 8.274 10.2888 8.9076C9.3324 9.5208 8.8956 10.6164 8.52 11.6352C8.0928 12.7944 7.8672 14.0016 7.7568 15.2292C7.6992 15.876 8.3496 16.4292 8.9568 16.4292C9.654 16.4304 10.0992 15.8784 10.1568 15.2304Z" fill="var(--fill-0, #1C56B3)"/>
<path id="Vector_2" d="M54.3576 25.9008C54.3264 25.3896 54.0324 25.0644 53.6676 24.8928C50.8008 18.2472 48.1512 11.508 45.4452 4.7964C45.1572 4.0812 44.4192 3.6636 43.6824 4.0788C33.6696 9.7224 22.872 13.7256 12.3156 18.1992C9.3012 19.476 6.306 20.796 3.3492 22.2012C2.7516 22.4856 2.6304 23.3124 2.9184 23.8428C5.2848 28.1988 7.6512 32.5548 10.0188 36.9108C10.1028 41.4696 10.1052 46.0308 10.0044 50.5896C9.9936 51.0972 10.254 51.4212 10.5984 51.5952C11.0328 52.0488 11.652 52.3308 12.2904 52.4424C13.65 52.6788 15.1008 52.542 16.4748 52.5432C19.5024 52.5444 22.5312 52.5468 25.5588 52.548C31.5648 52.5516 37.572 52.5552 43.578 52.5588C46.8972 52.56 50.3076 52.7712 53.5692 52.038C54.1476 51.9084 54.4044 51.4872 54.4236 51.036C54.5124 50.88 54.576 50.7012 54.5856 50.484C54.924 42.2904 54.8484 34.086 54.3576 25.9008Z" fill="var(--fill-0, #6FBCAA)"/>
<path id="Vector_3" d="M39.4644 33.4248C38.6808 30.8652 36.63 28.9404 33.8784 28.8372C33.3084 28.8156 32.7624 28.8984 32.2368 29.0412C30.2136 29.1756 28.2564 30.3684 26.922 31.8324C23.9016 35.1444 23.1996 39.9888 25.2204 43.9956C26.1732 45.8844 27.7692 47.4384 29.7504 48.2028C32.07 49.0968 34.4004 48.2928 36.072 46.5528C39.1716 43.326 40.7916 37.764 39.4644 33.4248Z" fill="var(--fill-0, white)"/>
<path id="Vector_4" d="M33.7452 24.9552C35.6724 24.4908 37.6776 24.4044 39.6564 24.5148C38.8152 21.372 36.96 18.3768 34.392 16.6824C32.1576 15.2076 29.3508 15.0312 27.1644 16.704C26.712 17.0508 26.3436 17.4624 26.0292 17.9076C24.5544 19.2996 23.8056 21.4656 23.7096 23.4444C23.6844 23.9472 23.7072 24.444 23.7504 24.9372C27.0852 24.5844 30.4152 24.7308 33.7452 24.9552Z" fill="var(--fill-0, white)"/>
<path id="Vector_5" d="M11.3328 35.31C11.3172 33.6492 11.3016 31.9872 11.286 30.3264C11.2788 29.5452 11.2716 28.7628 11.2632 27.9816C11.2572 27.3264 11.0172 26.2224 11.7924 25.9584C12.4164 25.7448 13.254 25.8468 13.9068 25.818C14.748 25.7808 15.588 25.7424 16.4292 25.7064C18.1104 25.6332 19.7928 25.5612 21.4752 25.4952C28.1508 25.2312 34.8324 25.0488 41.5128 25.1232C45.2724 25.1652 49.0296 25.2924 52.782 25.5276C53.5536 25.5756 53.55 24.3756 52.782 24.3276C45.6708 23.8824 38.5428 23.8344 31.4208 23.9844C27.8568 24.0588 24.2952 24.1812 20.7336 24.3252C18.9528 24.3972 17.172 24.474 15.3912 24.5532C14.5008 24.5928 13.6116 24.6312 12.7212 24.6732C12.1368 24.7008 11.496 24.7032 10.9716 25.0008C9.6252 25.7616 10.0632 27.8976 10.0752 29.1576C10.0944 31.2096 10.1136 33.2616 10.134 35.3136C10.14 36.0828 11.34 36.084 11.3328 35.31Z" fill="var(--fill-0, #231F20)"/>
<path id="Vector_6" d="M44.4456 25.2408C44.9088 27.3996 45.8856 29.5236 47.4264 31.1292C48.1476 31.8804 49.0044 32.5008 49.9632 32.9124C51.084 33.3948 52.2852 33.6204 53.4408 33.996C54.1764 34.2348 54.492 33.0768 53.76 32.8392C52.728 32.5044 51.6504 32.3028 50.64 31.9032C49.7376 31.5468 48.9456 30.9792 48.2748 30.2808C46.8732 28.8204 46.0236 26.8824 45.6036 24.9228C45.4416 24.1668 44.2848 24.486 44.4456 25.2408Z" fill="var(--fill-0, #231F20)"/>
<path id="Vector_7" d="M10.9524 43.35C13.0116 43.4088 14.9076 44.994 16.2396 46.44C17.5884 47.904 18.5964 49.6692 19.2516 51.5448C19.5048 52.2696 20.664 51.9576 20.4084 51.2256C19.668 49.1052 18.534 47.1324 16.9932 45.4896C15.4452 43.8396 13.3008 42.216 10.9524 42.15C10.1796 42.1284 10.1808 43.3284 10.9524 43.35Z" fill="var(--fill-0, #231F20)"/>
<path id="Vector_8" d="M46.9368 51.648C47.5308 49.7304 48.1668 47.7276 49.4712 46.158C50.6484 44.742 52.2252 43.7256 53.9988 43.2348C54.7416 43.0284 54.426 41.8704 53.6796 42.078C51.7224 42.6204 49.9248 43.746 48.6228 45.3108C47.1744 47.0496 46.44 49.2 45.7788 51.3312C45.5508 52.068 46.7088 52.3848 46.9368 51.648Z" fill="var(--fill-0, #231F20)"/>
<path id="Vector_9" d="M36.9744 8.6136C37.8864 9.9372 39.7236 10.5456 41.1996 10.9872C42.8604 11.484 44.6052 11.7012 46.3368 11.6436C47.1072 11.6184 47.1108 10.4184 46.3368 10.4436C44.8092 10.494 43.2948 10.3248 41.8212 9.9168C41.1132 9.72 40.4148 9.4764 39.7452 9.174C39.126 8.8944 38.4084 8.586 38.01 8.0088C37.5756 7.3752 36.5352 7.9752 36.9744 8.6136Z" fill="var(--fill-0, #231F20)"/>
<path id="Vector_10" d="M13.1316 19.386C13.932 21.0156 14.2344 22.902 13.9608 24.6996C13.9116 25.02 14.0412 25.3452 14.3796 25.4376C14.6628 25.5156 15.0684 25.3404 15.1176 25.0188C15.4428 22.878 15.1224 20.7264 14.1672 18.7812C14.0244 18.4908 13.6116 18.4104 13.3464 18.5664C13.0512 18.7392 12.9888 19.0944 13.1316 19.386Z" fill="var(--fill-0, #231F20)"/>
<path id="Vector_11" d="M10.5552 35.8512C13.6092 35.6268 16.4856 34.542 18.7452 32.4456C20.7552 30.5808 22.164 28.074 22.6548 25.374C22.7916 24.6192 21.636 24.2952 21.498 25.0548C21.0504 27.5136 19.8288 29.7576 18.0192 31.482C15.9828 33.4224 13.3416 34.446 10.554 34.6524C9.7896 34.7076 9.7836 35.9088 10.5552 35.8512Z" fill="var(--fill-0, #231F20)"/>
<path id="Vector_12" d="M3.2076 37.9704C4.0092 37.8732 4.8168 37.8792 5.6184 37.9848C5.5116 37.9704 5.406 37.956 5.2992 37.9416C5.676 37.9944 6.0492 38.0676 6.4176 38.1636C7.0248 38.3208 7.7484 37.9644 7.8936 37.326C8.0364 36.6996 7.7052 36.018 7.056 35.85C5.8068 35.526 4.4904 35.4168 3.2076 35.5716C2.8776 35.6112 2.6028 35.6796 2.3592 35.9232C2.1516 36.1308 1.9944 36.4728 2.0076 36.7716C2.022 37.0824 2.124 37.404 2.3592 37.62C2.5776 37.8192 2.8992 38.0076 3.2076 37.9704Z" fill="var(--fill-0, #FFD95E)"/>
<path id="Vector_13" d="M5.0112 45.5628C5.3712 44.9544 5.7684 44.37 6.2004 43.8096C6.138 43.89 6.0756 43.9716 6.0132 44.052C6.498 43.428 7.026 42.84 7.5924 42.2892C8.0436 41.8512 8.0652 41.0268 7.5924 40.5924C7.1076 40.1472 6.3768 40.1244 5.8956 40.5924C4.752 41.7048 3.7512 42.9792 2.94 44.352C2.6196 44.8932 2.7996 45.6924 3.3708 45.9936C3.948 46.2984 4.6704 46.14 5.0112 45.5628Z" fill="var(--fill-0, #FFD95E)"/>
<path id="Vector_14" d="M5.178 50.0172C5.3736 50.8356 5.5296 51.6624 5.6436 52.4964C5.6292 52.3896 5.6148 52.284 5.6004 52.1772C5.634 52.4268 5.664 52.6776 5.6904 52.9284C5.7252 53.256 5.8008 53.5368 6.042 53.7768C6.2496 53.9844 6.5916 54.1416 6.8904 54.1284C7.2 54.114 7.5228 54.012 7.7388 53.7768C7.9404 53.5572 8.1228 53.2392 8.0904 52.9284C7.9644 51.7344 7.7712 50.5476 7.4916 49.3788C7.3452 48.768 6.618 48.3456 6.0156 48.5412C5.3796 48.7464 5.0208 49.362 5.178 50.0172Z" fill="var(--fill-0, #FFD95E)"/>
</g>
</svg>
