<svg preserveAspectRatio="none" width="100%" height="100%" overflow="visible" style="display: block;" viewBox="0 0 60 60" fill="none" xmlns="http://www.w3.org/2000/svg">
<g id="icons8-check (3) 1">
<path id="Vector" d="M53.9772 29.94C53.7564 27.9804 51.8172 27.03 51.276 25.2252C51.0276 24.3972 51.0264 23.5752 51.2424 22.7436C51.546 21.5736 51.8796 20.4612 51.3528 19.2972C50.6952 17.844 49.1628 17.2692 47.832 16.5972C46.2048 15.7752 45.2988 14.358 44.8152 12.6324C44.544 11.6652 44.2992 10.6788 43.4004 10.0944C42.3504 9.4128 41.1924 9.8412 40.056 9.9132C39.0048 9.9792 37.9404 9.8172 36.9672 9.4068C36.0024 9 35.2392 8.3124 34.3956 7.716C33.4344 7.0356 32.3364 6.6144 31.1448 6.7452C29.9988 6.8712 28.9776 7.4136 28.0092 8.01C26.9052 8.6892 25.872 9.534 24.6456 9.7068C23.3076 9.8952 21.9516 9.4692 20.6076 9.4332C18.6036 9.3792 17.1084 10.1844 16.1052 11.9184C15.246 13.404 14.4528 14.7708 12.9972 15.7632C11.5296 16.7628 9.732 17.2248 9.0432 19.0452C8.4156 20.706 9.0996 22.4856 8.9616 24.1944C8.8884 25.1064 8.6316 26.0412 8.2236 26.8596C7.812 27.684 7.2048 28.3956 6.8208 29.2332C6.4548 30.0312 6.2604 30.9 6.486 31.7712C6.7296 32.7096 7.3572 33.3828 7.9044 34.1484C8.9832 35.6592 9.2556 37.2384 9.306 39.0492C9.3216 39.6312 9.3924 40.1772 9.5196 40.686C9.6528 41.4324 9.8964 42.15 10.3344 42.7872C11.46 44.4228 13.578 44.8524 14.9688 46.218C15.5748 46.812 16.074 47.4816 16.476 48.228C16.9224 49.0572 17.1444 49.9968 17.7108 50.7588C18.2892 51.5364 19.11 51.9516 20.0724 52.0356C21.0492 52.122 22.0188 51.8064 22.998 51.81C24.0108 51.8136 25.0356 52.0392 25.9488 52.4796C26.8392 52.9092 27.6132 53.5404 28.4892 53.9952C29.3388 54.4368 30.2544 54.7464 31.2216 54.6408C32.3784 54.5148 33.2052 53.832 34.0884 53.1408C34.8108 52.5744 35.5716 52.0176 36.4056 51.6264C37.374 51.1716 38.3064 51.1536 39.354 51.192C40.2096 51.2232 41.0796 51.2184 41.8872 50.8992C42.8808 50.5068 43.494 49.7268 43.9248 48.7788C44.694 47.0868 45.6576 45.5988 47.1432 44.4444C47.7888 43.9428 48.5052 43.5408 49.2432 43.1976C50.1588 42.7716 51.0192 42.2256 51.2352 41.16C51.4392 40.1568 50.8572 39.3468 50.7636 38.3856C50.6652 37.3752 51.0528 36.36 51.5172 35.4828C52.4556 33.7104 54.222 32.112 53.9772 29.94Z" fill="var(--fill-0, #1C56B3)"/>
<path id="Vector_2" d="M43.2648 23.6292C42.5244 22.8888 41.4696 23.0064 40.7196 23.6292C38.3412 25.602 36.1416 27.7656 33.9168 29.9064C32.8584 30.9252 31.7916 31.9332 30.6852 32.9004C30.0996 33.4128 29.5044 33.9156 28.8936 34.3992C28.5516 34.6704 28.0992 35.1144 27.6564 35.3832C27.2448 35.1204 26.8428 34.68 26.5296 34.4148C25.9296 33.9048 25.3416 33.3804 24.7668 32.8428C23.616 31.7664 22.524 30.6324 21.4776 29.4552C19.9356 27.72 17.3964 30.2736 18.9324 32.0004C20.6772 33.9624 22.5588 35.796 24.588 37.4652C25.6056 38.3028 26.7012 39.3648 28.1364 39.0648C29.4336 38.7924 30.5856 37.6296 31.5912 36.822C35.7024 33.5196 39.2052 29.5404 43.2636 26.1744C44.0136 25.554 43.9068 24.2724 43.2648 23.6292Z" fill="var(--fill-0, white)"/>
<path id="Vector_3" d="M14.604 22.182C16.224 21.5544 17.6868 20.6616 18.936 19.4448C20.1876 18.2268 21.0972 16.7772 21.768 15.1764C21.9348 14.7768 21.7944 14.1432 21.5868 13.7892C21.3684 13.416 20.94 13.0596 20.5116 12.9624C20.0508 12.858 19.5336 12.8796 19.1244 13.1436C18.7032 13.4148 18.4896 13.7616 18.2976 14.2188C18.2856 14.2464 18.2748 14.274 18.2628 14.3016C18.3228 14.1588 18.384 14.0148 18.444 13.872C18.186 14.4732 17.874 15.0492 17.508 15.5916C17.4168 15.7272 17.322 15.8604 17.2248 15.9912C17.0388 16.2408 17.2524 15.906 17.316 15.8748C17.2704 15.8976 17.1804 16.0428 17.1468 16.0824C16.938 16.3332 16.716 16.5756 16.4856 16.806C16.254 17.0376 16.0116 17.2572 15.7608 17.466C15.7032 17.514 15.6456 17.5596 15.588 17.6064C15.4212 17.7432 15.9432 17.3412 15.7056 17.5152C15.5616 17.6208 15.4176 17.7252 15.27 17.8248C14.7264 18.1896 14.1504 18.5004 13.5492 18.7584C13.692 18.6984 13.836 18.6372 13.9788 18.5772C13.8696 18.6228 13.7592 18.6672 13.6476 18.7104C13.1976 18.8844 12.8244 19.1064 12.5724 19.5372C12.3468 19.9236 12.2508 20.4912 12.3912 20.9244C12.666 21.7764 13.6644 22.5468 14.604 22.182Z" fill="var(--fill-0, white)"/>
<path id="Vector_4" d="M41.4672 45.15C41.55 44.9784 41.6412 44.8104 41.7444 44.6496C41.7984 44.5656 41.8548 44.4852 41.9136 44.4036C41.9772 44.3148 41.892 44.4264 41.9352 44.3748C41.964 44.34 41.9916 44.304 42.0204 44.2704C42.2664 43.9776 42.546 43.7172 42.8424 43.4784C42.9276 43.41 42.8208 43.494 42.8736 43.4544C42.9108 43.4268 42.9468 43.3992 42.984 43.3728C43.0584 43.3188 43.134 43.2672 43.2108 43.2156C43.3728 43.1088 43.5384 43.0068 43.7076 42.912C43.8768 42.816 44.0484 42.726 44.2236 42.642C44.3064 42.6012 44.3904 42.5628 44.4744 42.5244C44.5248 42.5016 44.5752 42.48 44.6256 42.4572C44.7432 42.4056 44.5548 42.486 44.6844 42.432C44.9736 42.3132 45.2112 42.0288 45.1032 41.694C45.0132 41.4156 44.676 41.1468 44.3652 41.2752C42.7704 41.934 41.1996 42.9372 40.4292 44.544C40.2936 44.826 40.3416 45.2052 40.644 45.3648C40.9152 45.5064 41.3232 45.4512 41.4672 45.15Z" fill="var(--fill-0, #231F20)"/>
<path id="Vector_5" d="M46.6296 3.414C46.206 4.2744 45.7812 5.1348 45.3576 5.9952C45.2136 6.2868 45.1476 6.5976 45.2364 6.9204C45.3132 7.1988 45.528 7.5 45.7884 7.638C46.0668 7.7856 46.404 7.8588 46.7136 7.7592C46.9992 7.6668 47.2932 7.4868 47.4312 7.2072C47.8548 6.3468 48.2796 5.4864 48.7032 4.626C48.8472 4.3344 48.9132 4.0236 48.8244 3.7008C48.7476 3.4224 48.5328 3.1212 48.2724 2.9832C47.994 2.8356 47.6568 2.7624 47.3472 2.862C47.0616 2.9556 46.7664 3.1356 46.6296 3.414Z" fill="var(--fill-0, #58A691)"/>
<path id="Vector_6" d="M50.8884 11.1624C51.486 10.5984 52.11 10.0632 52.7604 9.5616C52.68 9.624 52.5984 9.6864 52.518 9.7488C53.0664 9.3276 53.6328 8.9292 54.2136 8.5548C54.7404 8.2152 55.0056 7.4736 54.6444 6.9132C54.3048 6.3864 53.5668 6.1188 53.0028 6.4824C51.6456 7.356 50.364 8.3568 49.1916 9.4656C48.7344 9.8976 48.7236 10.7328 49.1916 11.1624C49.6812 11.6124 50.4012 11.6232 50.8884 11.1624Z" fill="var(--fill-0, #58A691)"/>
<path id="Vector_7" d="M53.226 15.5376C53.3268 15.4848 53.4288 15.4368 53.5332 15.3924C53.4372 15.4332 53.3424 15.4728 53.2464 15.5136C53.5764 15.3768 53.9196 15.282 54.2736 15.2316C54.1668 15.246 54.0612 15.2604 53.9544 15.2748C54.3252 15.2256 54.6972 15.2232 55.068 15.2712C54.9612 15.2568 54.8556 15.2424 54.7488 15.228C54.8772 15.246 55.0044 15.27 55.1304 15.2988C55.4424 15.3708 55.7748 15.342 56.0556 15.1776C56.304 15.0324 56.5416 14.7468 56.6076 14.46C56.6772 14.1528 56.6628 13.8084 56.4864 13.5348C56.3208 13.278 56.0748 13.0536 55.7688 12.9828C54.4908 12.6888 53.1768 12.8592 52.014 13.464C51.456 13.7544 51.2448 14.58 51.5832 15.1056C51.9504 15.6744 52.6296 15.8472 53.226 15.5376Z" fill="var(--fill-0, #58A691)"/>
<path id="Vector_8" d="M7.0944 47.4696C7.2744 47.538 7.1064 47.4672 7.2096 47.514C7.2852 47.5476 7.3596 47.5836 7.4328 47.6208C7.5984 47.7036 7.7604 47.7948 7.9176 47.892C8.076 47.9892 8.2296 48.0936 8.3784 48.204C8.5428 48.3252 8.2716 48.114 8.4288 48.2448C8.508 48.3108 8.5872 48.378 8.6652 48.4464C8.9448 48.6948 9.2064 48.9648 9.4488 49.2492C9.5028 49.3128 9.5556 49.3764 9.6084 49.4412C9.6348 49.4736 9.66 49.506 9.6864 49.5396C9.6384 49.4784 9.6384 49.4808 9.6876 49.5456C9.7968 49.698 9.9048 49.8504 10.0068 50.0088C10.9356 51.4452 11.4264 53.0016 11.8812 54.6612C12.0528 55.2864 12.7332 55.6704 13.3572 55.4988C13.9848 55.326 14.3676 54.6492 14.1948 54.0228C13.6776 52.1388 13.0512 50.2152 11.94 48.5892C10.8828 47.0424 9.492 45.8268 7.7316 45.156C7.1436 44.9316 6.39 45.4032 6.2556 45.9936C6.1008 46.6788 6.4656 47.2296 7.0944 47.4696Z" fill="var(--fill-0, #FFBD1A)"/>
<path id="Vector_9" d="M4.464 52.2588C4.7472 52.4892 5.0016 52.7484 5.2272 53.0352C5.1648 52.9548 5.1024 52.8732 5.04 52.7928C5.2956 53.1264 5.508 53.4864 5.6748 53.8728C5.634 53.7768 5.5944 53.682 5.5536 53.586C5.724 53.9904 5.8404 54.4116 5.8992 54.846C5.8848 54.7392 5.8704 54.6336 5.856 54.5268C5.8716 54.654 5.8824 54.78 5.8896 54.9072C5.922 55.5336 6.4188 56.1372 7.0896 56.1072C7.7124 56.0796 8.3244 55.5792 8.2896 54.9072C8.2044 53.2536 7.4592 51.6144 6.1608 50.5608C5.9052 50.3532 5.6532 50.2092 5.3124 50.2092C5.0184 50.2092 4.6668 50.34 4.464 50.5608C4.254 50.79 4.098 51.09 4.1124 51.4092C4.1256 51.708 4.2216 52.062 4.464 52.2588Z" fill="var(--fill-0, #FFBD1A)"/>
</g>
</svg>
