<svg preserveAspectRatio="none" width="100%" height="100%" overflow="visible" style="display: block;" viewBox="0 0 60 60" fill="none" xmlns="http://www.w3.org/2000/svg">
<g id="icons8-document (1) 2">
<path id="Vector" d="M52.4136 25.2C52.3452 23.8332 52.3188 22.4664 52.2732 21.0984C52.2252 19.6188 52.3776 17.8632 51.894 16.4544C51.5328 15.4044 50.5176 14.5644 49.7784 13.8264C47.976 12.0264 46.1112 10.218 44.1648 8.5668C43.7292 8.0808 43.2708 7.6236 42.7584 7.272C41.7636 6.5916 40.5504 6.564 39.4092 6.5928C36.6276 6.6636 33.846 6.6744 31.0644 6.5964C29.7204 6.5592 28.3764 6.5028 27.0336 6.4296C25.9332 6.3684 24.7512 6.1812 23.6868 6.5844C22.3512 7.092 21.9108 8.3232 21.84 9.7428C21.8016 10.5132 21.7776 11.2836 21.75 12.0552C20.8332 12.0516 19.9176 12.0384 19.0008 12.0468C17.3436 12.0624 15.6876 12.0996 14.0316 12.1572C12.5856 12.2076 11.028 12.138 9.8484 13.1844C8.9004 14.0244 8.448 15.3408 8.1924 16.5936C7.8456 18.2916 7.674 20.0376 7.572 21.7704C7.3704 25.1832 7.3692 28.6152 7.2948 32.034C7.218 35.5632 7.1412 39.096 7.2756 42.6252C7.3428 44.3856 7.4628 46.1436 7.6608 47.892C7.8264 49.35 7.8624 51.1476 8.6832 52.392C9.6084 53.7948 11.298 53.8848 12.7584 54.0264C14.3244 54.1776 15.9 54.174 17.4696 54.1188C20.7576 54.0024 24.0444 53.7768 27.33 53.598C29.166 53.4984 31.002 53.3976 32.8392 53.298C34.3536 53.2152 36.5172 53.5068 37.6848 52.2444C38.2536 51.63 38.4576 50.772 38.6688 49.9632C38.766 49.5936 38.8608 49.2228 38.9568 48.8532C40.9956 49.0632 43.0536 49.0656 45.042 48.7524C46.6068 48.5064 48.342 47.9772 49.4508 46.6872C50.9208 44.9772 51.7644 42.5508 52.2216 40.3128C53.2308 35.3532 52.6668 30.2148 52.4136 25.2Z" fill="var(--fill-0, #FFBD1A)"/>
<path id="Vector_2" d="M46.9668 13.4748C45.8568 12.5148 44.7888 11.5164 43.7568 10.4736C43.1448 9.8544 42.5328 9.228 41.892 8.6352C41.664 8.6712 41.4336 8.7324 41.1984 8.832C40.4628 9.1416 39.9456 9.69 39.6828 10.4532C39.522 10.92 39.5604 11.3796 39.6072 11.8548C39.6936 12.744 39.8124 13.632 39.96 14.5128C40.1124 15.4176 40.2012 16.5744 40.8888 17.2476C41.7756 18.1164 42.8856 17.9556 44.004 17.9088C45.7584 17.8356 47.5128 17.7624 49.2672 17.6904C49.8876 17.6652 50.5056 17.364 50.9184 16.8888C49.6296 15.7164 48.2772 14.6088 46.9668 13.4748Z" fill="var(--fill-0, white)"/>
<path id="Vector_3" d="M32.5668 19.4748C31.4568 18.5148 30.3888 17.5164 29.3568 16.4736C28.7448 15.8544 28.1328 15.228 27.492 14.6352C27.264 14.6712 27.0336 14.7324 26.7984 14.832C26.0628 15.1416 25.5456 15.69 25.2828 16.4532C25.122 16.92 25.1604 17.3796 25.2072 17.8548C25.2936 18.744 25.4124 19.632 25.56 20.5128C25.7124 21.4176 25.8012 22.5744 26.4888 23.2476C27.3756 24.1164 28.4856 23.9556 29.604 23.9088C31.3584 23.8356 33.1128 23.7624 34.8672 23.6904C35.4876 23.6652 36.1056 23.364 36.5184 22.8888C35.2296 21.7164 33.8772 20.6088 32.5668 19.4748Z" fill="var(--fill-0, white)"/>
<path id="Vector_4" d="M14.2476 32.4144C19.8132 32.4444 25.3788 32.4744 30.9444 32.5032C31.7172 32.5068 31.7172 31.3068 30.9444 31.3032C25.3788 31.2732 19.8132 31.2432 14.2476 31.2144C13.4748 31.2096 13.4736 32.4096 14.2476 32.4144Z" fill="var(--fill-0, #231F20)"/>
<path id="Vector_5" d="M15.3192 38.7984C18.9984 38.748 22.6788 38.8344 26.352 39.06C27.1236 39.1068 27.12 37.9068 26.352 37.86C22.6788 37.6356 18.9996 37.548 15.3192 37.5984C14.5476 37.608 14.5452 38.808 15.3192 38.7984Z" fill="var(--fill-0, #231F20)"/>
<path id="Vector_6" d="M14.5548 45.552C20.0616 45.1788 25.5816 45.084 31.0968 45.2676C31.8696 45.2928 31.8684 44.0928 31.0968 44.0676C25.5804 43.884 20.0604 43.9788 14.5548 44.352C13.788 44.4036 13.782 45.6036 14.5548 45.552Z" fill="var(--fill-0, #231F20)"/>
<path id="Vector_7" d="M46.2672 32.4492C43.9392 32.3928 41.616 32.5596 39.3108 32.9148C39.2976 31.4436 39.2712 29.9724 39.2376 28.5012C41.376 28.194 43.5648 28.2012 45.6972 28.5324C45.9912 28.578 46.2888 28.4532 46.3752 28.1136C46.446 27.8328 46.2876 27.4212 45.9912 27.3756C43.7328 27.0264 41.4708 27.0132 39.21 27.3144C39.1992 26.9496 39.1968 26.5836 39.1848 26.2176C39.1368 24.8304 39.1164 23.4144 38.9004 22.0428C38.5788 19.9968 37.3176 18.5256 35.8704 17.1348C34.872 16.1748 33.8664 15.2208 32.85 14.2788C31.9752 13.4676 31.0848 12.4824 30.0144 11.9268C28.9632 11.382 27.7488 11.4204 26.5944 11.4108C25.1892 11.3988 23.7852 11.4492 22.3836 11.5524C21.618 11.6088 21.612 12.8088 22.3836 12.7524C23.5428 12.6672 24.7044 12.6156 25.8684 12.6096C27.0348 12.6024 28.4628 12.4464 29.5212 13.0212C30.4128 13.506 31.158 14.3472 31.896 15.0288C32.82 15.882 33.7308 16.7496 34.6404 17.6184C36.186 19.0944 37.548 20.4984 37.7892 22.7268C37.9248 23.9844 37.9548 25.26 37.9956 26.5236C38.178 32.1864 38.1288 37.8528 38.1936 43.5168C38.2068 44.6556 38.2212 45.7956 38.2632 46.9332C38.2848 47.52 38.2572 48.1872 38.4216 48.7572C38.6352 49.4976 39.7932 49.1832 39.5784 48.438C39.5136 48.2136 39.546 48.3228 39.5208 48.0228C39.4932 47.6928 39.4788 47.3604 39.4668 47.0292C39.426 45.9828 39.4116 44.9352 39.3984 43.8888C39.3768 42.2004 39.3708 40.512 39.3612 38.8248C39.366 38.8248 39.3684 38.8272 39.3732 38.8272C41.49 38.8296 43.6044 38.9808 45.7032 39.282C45.9984 39.324 46.254 38.976 46.254 38.682C46.254 38.322 45.9996 38.124 45.7032 38.082C43.6044 37.7808 41.49 37.6284 39.3732 37.6272C39.3648 37.6272 39.36 37.632 39.3516 37.632C39.3468 36.804 39.3396 35.976 39.3336 35.1468C39.3312 34.8012 39.3264 34.4544 39.3228 34.1088C41.6208 33.7404 43.9464 33.5904 46.2672 33.6468C46.9776 33.666 46.9776 32.466 46.2672 32.4492Z" fill="var(--fill-0, #231F20)"/>
<path id="Vector_8" d="M46.632 6.372C46.7856 4.896 46.83 3.4116 46.7652 1.9284C46.7376 1.302 46.2336 0.6984 45.5652 0.7284C44.9388 0.756 44.3352 1.2564 44.3652 1.9284C44.43 3.4116 44.3856 4.896 44.232 6.372C44.202 6.6588 44.388 7.0248 44.5836 7.2204C44.7912 7.428 45.1332 7.5852 45.432 7.572C46.1388 7.5396 46.5624 7.0428 46.632 6.372Z" fill="var(--fill-0, #4C8CF0)"/>
<path id="Vector_9" d="M51.2928 8.7228C52.2684 7.6344 53.34 6.6372 54.4968 5.7432C54.4164 5.8056 54.3348 5.868 54.2544 5.9304C54.4752 5.7612 54.6984 5.5944 54.924 5.4324C55.1844 5.2452 55.3872 5.034 55.476 4.7148C55.5552 4.428 55.5192 4.0452 55.3548 3.7896C55.0296 3.2856 54.258 2.9676 53.7132 3.3588C52.2156 4.4352 50.8272 5.6508 49.5972 7.0236C49.1784 7.4904 49.1016 8.2656 49.5972 8.7204C50.0532 9.1428 50.8452 9.222 51.2928 8.7228Z" fill="var(--fill-0, #4C8CF0)"/>
<path id="Vector_10" d="M53.8284 12.756C54.7668 12.93 55.6872 13.1892 56.5788 13.5312C56.8536 13.6368 57.2592 13.5528 57.504 13.41C57.7524 13.2648 57.99 12.9792 58.056 12.6924C58.1256 12.3852 58.1112 12.0408 57.9348 11.7672C57.756 11.49 57.5244 11.3328 57.2172 11.2152C56.3256 10.8732 55.4052 10.614 54.4668 10.44C54.144 10.38 53.8332 10.3908 53.5416 10.5612C53.2932 10.7064 53.0556 10.992 52.9896 11.2788C52.92 11.586 52.9344 11.9304 53.1108 12.204C53.2728 12.4548 53.5248 12.6996 53.8284 12.756Z" fill="var(--fill-0, #4C8CF0)"/>
<path id="Vector_11" d="M40.4508 54.036C40.4916 54.2544 40.5264 54.4728 40.5564 54.6924C40.542 54.5856 40.5276 54.48 40.5132 54.3732C40.608 55.1064 40.6356 55.8456 40.5948 56.5848C40.578 56.8812 40.74 57.2268 40.9464 57.4332C41.154 57.6408 41.496 57.798 41.7948 57.7848C42.474 57.7548 42.9576 57.2568 42.9948 56.5848C43.0536 55.5168 42.9612 54.4476 42.7644 53.3976C42.7116 53.1156 42.4524 52.8204 42.2124 52.68C41.9556 52.53 41.5764 52.4652 41.2872 52.5588C40.9968 52.6524 40.7172 52.8324 40.5696 53.1108C40.4148 53.4096 40.3884 53.7036 40.4508 54.036Z" fill="var(--fill-0, #92D6C5)"/>
<path id="Vector_12" d="M44.868 54.1512C45.1764 54.4536 45.4632 54.7764 45.7284 55.1172C45.666 55.0368 45.6036 54.9552 45.5412 54.8748C45.7776 55.1808 45.9936 55.5 46.1916 55.8324C46.3464 56.0928 46.6152 56.3028 46.9092 56.3844C47.196 56.4636 47.5788 56.4276 47.8344 56.2632C48.0912 56.0976 48.3156 55.8516 48.3864 55.5456C48.4584 55.2324 48.4332 54.9036 48.2652 54.6204C47.7972 53.8332 47.2212 53.0964 46.5672 52.4544C46.3464 52.2372 46.0296 52.1028 45.7188 52.1028C45.4248 52.1028 45.0732 52.2336 44.8704 52.4544C44.6604 52.6836 44.5044 52.9836 44.5188 53.3028C44.5308 53.6196 44.6364 53.9244 44.868 54.1512Z" fill="var(--fill-0, #92D6C5)"/>
<path id="Vector_13" d="M49.7868 52.3932C50.6676 52.4424 51.5508 52.4124 52.4268 52.3044C52.5924 52.3104 52.746 52.2756 52.8888 52.2012C53.0376 52.1532 53.166 52.0704 53.2752 51.9528C53.4828 51.7452 53.64 51.4032 53.6268 51.1044C53.6124 50.7936 53.5104 50.472 53.2752 50.256C53.0568 50.0556 52.734 49.8672 52.4268 49.9044C51.5508 50.0124 50.6676 50.0424 49.7868 49.9932C49.4904 49.9764 49.1448 50.1384 48.9384 50.3448C48.7308 50.5524 48.5736 50.8944 48.5868 51.1932C48.6012 51.504 48.7032 51.8256 48.9384 52.0416C49.1808 52.2636 49.4568 52.3752 49.7868 52.3932Z" fill="var(--fill-0, #92D6C5)"/>
</g>
</svg>
